<?xml version="1.0" standalone="no"?>
<!DOCTYPE svg PUBLIC "-//W3C//DTD SVG 20010904//EN"
 "http://www.w3.org/TR/2001/REC-SVG-20010904/DTD/svg10.dtd">
<svg version="1.0" xmlns="http://www.w3.org/2000/svg"
 width="640.000000pt" height="640.000000pt" viewBox="0 0 640.000000 640.000000"
 preserveAspectRatio="xMidYMid meet">
<metadata>
Created by potrace 1.14, written by Peter Selinger 2001-2017
</metadata>
<g transform="translate(0.000000,640.000000) scale(0.100000,-0.100000)"
fill="#000000" stroke="none">
<path d="M4830 6390 c0 -5 5 -10 10 -10 6 0 10 -9 10 -20 0 -11 5 -20 10 -20
6 0 10 -6 10 -13 0 -17 28 -75 40 -82 5 -3 7 -12 4 -20 -4 -8 1 -18 10 -21 9
-3 16 -12 16 -19 0 -18 -34 -45 -58 -45 -11 0 -24 -4 -27 -10 -4 -6 7 -10 24
-10 17 0 31 5 31 10 0 19 42 10 47 -10 8 -30 23 -24 23 10 0 29 2 30 45 30 25
0 45 5 45 10 0 6 11 10 24 10 14 0 28 5 31 10 4 6 -7 10 -24 10 -17 0 -31 -4
-31 -10 0 -5 -20 -10 -45 -10 -25 0 -45 -4 -45 -10 0 -5 -4 -10 -10 -10 -5 0
-10 9 -10 20 0 11 -4 20 -10 20 -5 0 -10 8 -10 19 0 10 -7 24 -15 31 -8 7 -15
19 -15 26 0 8 -4 14 -10 14 -5 0 -10 6 -10 14 0 19 -42 96 -52 96 -4 0 -8 -4
-8 -10z"/>
<path d="M5810 6390 c0 -5 -18 -10 -39 -10 -22 0 -43 -4 -46 -10 -3 -5 -21
-10 -39 -10 -18 0 -41 -7 -52 -15 -10 -8 -34 -15 -51 -15 -18 0 -33 -4 -33
-10 0 -5 18 -10 40 -10 22 0 40 5 40 10 0 6 18 10 40 10 27 0 43 5 46 15 4 10
20 15 49 15 24 0 47 5 50 10 3 6 24 10 46 10 21 0 39 5 39 10 0 6 -20 10 -45
10 -25 0 -45 -4 -45 -10z"/>
<path d="M5465 6300 c-3 -5 -24 -10 -45 -10 -21 0 -42 -4 -45 -10 -3 -5 -24
-10 -45 -10 -21 0 -42 -4 -45 -10 -3 -5 -17 -10 -30 -10 -33 0 -40 -17 -9 -24
28 -7 47 0 39 15 -4 5 14 9 39 9 25 0 46 5 46 10 0 6 20 10 45 10 25 0 45 5
45 10 0 6 18 10 40 10 22 0 40 5 40 10 0 6 -15 10 -34 10 -19 0 -38 -4 -41
-10z"/>
<path d="M5160 6220 c-26 -5 -31 -8 -18 -14 22 -10 73 -4 71 9 -2 13 -11 14
-53 5z"/>
<path d="M4784 6105 c-4 -9 -19 -15 -35 -15 -16 0 -29 -4 -29 -10 0 -5 -13
-10 -29 -10 -17 0 -33 -4 -36 -10 -3 -5 -15 -10 -26 -10 -10 0 -19 -4 -19 -10
0 -5 -13 -10 -30 -10 -16 0 -30 -4 -30 -10 0 -5 14 -10 30 -10 17 0 30 5 30
10 0 6 9 10 20 10 11 0 20 5 20 10 0 6 13 10 29 10 17 0 33 5 36 10 3 6 15 10
26 10 10 0 27 4 37 9 9 6 30 12 45 16 15 3 25 10 22 15 -10 16 -55 12 -61 -5z"/>
<path d="M4980 6070 c0 -11 5 -20 10 -20 6 0 10 -9 10 -20 0 -11 5 -20 10 -20
6 0 10 -9 10 -20 0 -11 7 -23 15 -26 8 -4 15 -15 15 -25 0 -10 5 -19 10 -19 6
0 10 -9 10 -20 0 -11 5 -20 10 -20 6 0 10 -9 10 -19 0 -11 5 -23 10 -26 6 -3
10 -13 10 -21 0 -20 29 -49 38 -39 4 4 1 10 -5 12 -7 3 -13 13 -13 24 0 10 -4
19 -10 19 -5 0 -10 9 -10 19 0 11 -4 23 -10 26 -5 3 -10 15 -10 26 0 10 -4 19
-10 19 -5 0 -10 9 -10 20 0 11 -4 20 -10 20 -5 0 -10 9 -10 20 0 11 -7 23 -15
26 -8 4 -15 15 -15 25 0 10 -4 19 -10 19 -5 0 -10 9 -10 20 0 11 -4 20 -10 20
-5 0 -10 -9 -10 -20z"/>
<path d="M4502 5998 c-7 -7 -27 -14 -45 -15 -48 -2 -49 -2 -42 -13 10 -15 71
-12 85 5 7 8 19 15 26 15 8 0 14 5 14 10 0 14 -24 12 -38 -2z"/>
<path d="M4350 5950 c0 -5 -9 -10 -20 -10 -11 0 -20 -4 -20 -10 0 -5 6 -10 14
-10 8 0 18 5 21 10 3 6 17 10 30 10 13 0 27 5 30 10 4 6 -7 10 -24 10 -17 0
-31 -4 -31 -10z"/>
<path d="M4240 5910 c0 -5 -18 -10 -39 -10 -43 0 -63 -15 -32 -23 25 -6 71 3
71 14 0 5 14 9 30 9 17 0 30 5 30 10 0 6 -13 10 -30 10 -16 0 -30 -4 -30 -10z"/>
<path d="M4078 5873 c-10 -2 -18 -9 -18 -14 0 -5 -13 -9 -30 -9 -16 0 -30 -4
-30 -10 0 -5 -13 -10 -29 -10 -17 0 -33 -4 -36 -10 -3 -5 -19 -10 -36 -10 -16
0 -29 -4 -29 -10 0 -5 14 -10 30 -10 17 0 30 5 30 10 0 6 13 10 29 10 17 0 33
5 36 10 3 6 16 10 29 10 12 0 26 4 32 9 5 5 27 11 49 13 22 2 39 8 38 13 -3
11 -39 16 -65 8z"/>
<path d="M3788 5763 c-47 -24 -62 -43 -34 -43 7 0 19 7 26 15 7 8 19 15 26 15
8 0 14 5 14 10 0 6 9 10 20 10 11 0 20 5 20 10 0 15 -20 10 -72 -17z"/>
<path d="M5154 5756 c-4 -10 -2 -22 4 -28 8 -8 13 -7 18 6 4 10 2 22 -4 28 -8
8 -13 7 -18 -6z"/>
<path d="M3643 5705 c-16 -18 -17 -33 -1 -17 7 7 29 12 50 12 21 0 38 5 38 10
0 15 -73 11 -87 -5z"/>
<path d="M5180 5707 c0 -19 48 -113 65 -127 11 -9 15 -9 15 -1 0 6 -4 11 -10
11 -5 0 -10 9 -10 20 0 11 -4 20 -10 20 -5 0 -10 11 -10 25 0 14 -4 25 -10 25
-5 0 -10 9 -10 20 0 11 -4 20 -10 20 -5 0 -10 -6 -10 -13z"/>
<path d="M2405 5683 c-55 -20 -115 -79 -166 -167 -8 -13 -71 -218 -89 -286 -6
-25 -16 -59 -21 -76 -5 -17 -9 -57 -9 -90 0 -33 -5 -65 -10 -70 -18 -18 2
-514 21 -514 5 0 9 -19 9 -42 0 -23 4 -55 9 -72 5 -17 14 -49 20 -71 26 -104
66 -224 88 -263 l24 -43 -23 -19 c-13 -11 -32 -20 -43 -20 -20 -1 -28 -6 -129
-72 -31 -21 -64 -38 -72 -38 -23 0 -178 -153 -225 -222 -21 -32 -39 -60 -39
-62 0 -2 -14 -18 -30 -36 -26 -28 -34 -31 -65 -26 -46 9 -35 26 16 26 34 0 41
4 50 27 11 30 4 74 -14 85 -7 4 -27 8 -45 8 -18 0 -43 5 -54 11 -11 6 -50 20
-87 30 -36 10 -84 32 -106 48 -22 16 -61 36 -87 45 -26 8 -107 55 -180 104
-73 49 -144 92 -159 95 -14 4 -45 20 -70 37 -24 16 -51 30 -59 30 -8 0 -28 7
-45 16 -16 9 -57 25 -90 35 -33 11 -69 23 -80 28 -11 5 -36 12 -55 16 -19 3
-60 11 -90 16 -30 6 -104 13 -164 16 -98 4 -114 2 -152 -18 -23 -12 -54 -34
-69 -49 -26 -27 -26 -30 -21 -131 5 -121 14 -187 27 -195 5 -3 9 -18 9 -33 0
-25 62 -198 96 -265 8 -16 14 -33 14 -39 0 -27 155 -263 207 -315 13 -13 23
-27 23 -32 0 -5 19 -32 43 -59 23 -27 65 -77 92 -111 28 -34 76 -91 108 -126
31 -35 57 -68 57 -72 0 -18 167 -176 230 -217 36 -24 72 -51 80 -60 12 -14 58
-46 144 -99 l28 -18 -28 -17 c-16 -10 -43 -21 -59 -25 -17 -4 -48 -11 -70 -17
-22 -6 -58 -14 -80 -19 -22 -5 -60 -14 -85 -20 -25 -6 -72 -15 -105 -20 -33
-4 -72 -12 -87 -18 -14 -6 -61 -11 -103 -11 -42 0 -92 -5 -111 -11 -21 -7 -55
-9 -82 -5 -26 3 -90 9 -141 11 l-95 5 -28 -32 c-19 -22 -28 -43 -28 -67 0 -31
9 -44 74 -106 40 -39 94 -87 120 -106 26 -19 61 -46 79 -60 40 -32 114 -80
123 -80 4 0 32 -12 63 -26 89 -42 135 -62 156 -70 18 -6 16 -8 -15 -21 -19 -8
-59 -17 -90 -20 -70 -7 -90 -24 -90 -78 0 -46 22 -75 56 -75 11 0 24 -4 30 -9
5 -5 25 -11 44 -13 24 -2 36 -9 38 -21 3 -13 -4 -17 -30 -17 -19 0 -43 -7 -54
-15 -10 -8 -38 -15 -61 -15 -23 0 -45 -4 -48 -10 -3 -5 -24 -10 -45 -10 -21 0
-42 -5 -45 -10 -3 -6 -26 -10 -50 -10 -24 0 -47 -5 -50 -10 -3 -5 -19 -10 -36
-10 -16 0 -29 -4 -29 -10 0 -13 97 -13 105 0 3 5 24 10 46 10 21 0 39 5 39 10
0 6 28 10 65 10 37 0 65 4 65 10 0 6 17 10 38 10 20 0 45 7 55 14 9 7 29 12
44 10 15 -1 42 4 61 12 43 18 80 17 112 -1 33 -19 64 -19 80 0 7 9 29 15 51
15 21 0 41 5 44 10 3 6 21 10 40 10 19 0 37 5 40 10 3 5 28 10 55 10 27 0 52
5 55 10 3 6 28 10 55 10 27 0 52 5 55 10 11 18 68 11 92 -12 22 -20 27 -21 56
-9 75 31 170 60 179 55 5 -3 20 6 33 20 16 17 35 26 54 26 16 0 33 4 36 10 3
5 15 10 26 10 10 0 27 4 37 9 9 5 60 19 112 31 52 12 110 29 129 36 18 8 43
14 55 14 21 0 136 39 172 58 10 6 88 34 173 62 163 55 167 55 301 31 70 -12
122 -25 185 -44 28 -8 70 -21 95 -27 25 -7 59 -18 75 -25 17 -8 49 -16 73 -19
23 -3 60 -9 83 -12 25 -4 45 -2 52 5 6 6 30 11 53 11 24 0 46 5 49 10 3 6 17
10 31 10 14 0 40 7 60 15 32 13 35 13 41 -3 4 -9 19 -36 35 -59 15 -23 28 -45
28 -50 0 -4 29 -40 65 -78 35 -39 64 -73 65 -77 0 -5 -13 -8 -30 -8 -16 0 -30
-4 -30 -10 0 -6 -32 -10 -75 -10 -43 0 -75 -4 -75 -10 0 -13 137 -13 145 0 8
13 142 13 150 0 8 -13 115 -13 115 0 0 6 18 10 39 10 22 0 43 5 46 10 3 6 19
10 35 10 16 0 32 5 35 10 3 6 14 10 24 10 16 0 59 17 103 41 10 5 33 9 52 9
19 0 38 5 41 10 3 6 28 10 56 10 27 0 49 5 49 10 0 6 22 10 49 10 28 0 53 5
56 10 3 5 23 10 44 10 20 0 42 5 49 12 6 6 32 13 57 14 46 2 71 13 48 21 -7 3
-13 10 -13 16 0 8 4 7 12 -1 7 -7 29 -12 50 -12 36 0 38 2 28 20 -8 15 -21 20
-50 20 -21 0 -42 -5 -45 -10 -3 -6 -17 -10 -30 -10 -13 0 -27 -4 -30 -10 -3
-5 -20 -10 -36 -10 -17 0 -40 -5 -52 -12 -12 -7 -46 -13 -74 -14 -29 -1 -59
-6 -65 -12 -7 -5 -33 -12 -58 -16 -100 -12 -130 -19 -136 -27 -3 -5 -27 -9
-55 -9 -27 0 -49 -4 -49 -10 0 -5 -25 -10 -55 -10 -42 0 -55 -4 -55 -15 0 -11
-8 -14 -32 -11 -18 3 -39 5 -47 5 -9 1 -10 5 -3 14 5 6 12 37 15 67 7 75 21
153 30 166 4 7 7 40 8 74 2 60 3 62 40 86 21 13 41 24 44 24 2 0 35 15 72 33
38 18 88 39 113 46 25 7 74 24 110 37 36 13 97 32 135 44 39 12 77 25 85 29
25 13 94 22 106 14 6 -5 17 -19 24 -32 7 -14 17 -30 22 -35 10 -13 85 -126
109 -165 12 -20 25 -27 58 -29 60 -4 102 37 112 111 17 122 42 187 70 187 10
0 21 -4 24 -10 9 -14 119 -12 133 2 18 18 15 83 -5 99 -9 8 -39 14 -69 14 -85
0 -84 17 3 47 42 15 80 25 85 22 4 -3 8 -14 8 -25 0 -57 46 -76 93 -39 43 34
89 48 160 49 75 0 83 6 150 107 16 24 33 46 38 50 5 3 21 -8 35 -23 22 -24 34
-28 75 -27 42 0 53 5 84 38 19 21 35 42 35 47 0 13 21 11 54 -6 36 -19 145
-20 171 -1 11 8 33 40 48 72 17 34 43 70 62 84 l34 25 1 283 c0 157 -4 282 -9
282 -5 0 -12 15 -15 33 -4 17 -9 44 -13 60 -3 15 -13 31 -22 35 -9 5 -64 10
-122 11 -102 3 -108 2 -169 -29 -35 -17 -88 -40 -119 -50 -89 -30 -216 -84
-236 -100 -33 -28 -90 -40 -191 -40 -58 0 -105 -5 -111 -11 -6 -6 -66 -12
-144 -13 -74 -2 -147 -8 -162 -14 -42 -18 -228 -15 -300 4 -35 9 -85 14 -114
12 -51 -4 -54 -3 -68 25 -8 17 -15 38 -15 47 0 22 -11 32 -24 22 -6 -5 -30
-14 -54 -22 -32 -10 -45 -11 -54 -2 -7 7 -20 12 -29 12 -9 0 -27 8 -39 18
l-22 17 21 19 c14 13 21 31 21 56 0 29 -8 43 -41 75 -22 22 -61 72 -87 110
-25 39 -49 72 -53 75 -4 3 -11 19 -14 35 -4 17 -20 44 -35 60 -14 17 -43 55
-62 85 -20 30 -58 76 -85 101 -72 69 -208 159 -279 185 -52 19 -74 35 -132 96
-111 117 -164 192 -237 338 -26 52 -60 110 -76 129 -15 20 -47 76 -69 125 -23
49 -52 104 -66 122 -14 18 -34 56 -45 85 -22 58 -117 219 -128 219 -5 0 -21
28 -36 62 -40 88 -187 272 -270 338 -62 49 -200 120 -229 119 -11 -1 -39 -8
-61 -16z m139 -139 c31 -14 56 -29 56 -33 0 -4 18 -17 40 -30 22 -12 40 -27
40 -32 0 -6 21 -34 48 -62 75 -82 109 -131 137 -193 14 -33 34 -68 45 -79 35
-38 92 -130 111 -180 29 -73 41 -96 71 -135 16 -19 28 -38 28 -42 0 -20 73
-161 99 -190 15 -18 52 -80 81 -138 29 -58 65 -121 79 -140 34 -44 71 -104 71
-116 0 -5 -44 -6 -102 -1 -191 15 -390 19 -401 8 -6 -6 -46 -11 -88 -11 -43 0
-81 -4 -84 -10 -3 -5 -21 -10 -40 -10 -19 0 -37 -4 -40 -10 -3 -5 -17 -10 -29
-10 -13 0 -49 -11 -80 -25 -31 -14 -66 -25 -77 -25 -22 0 -94 -34 -104 -50 -3
-5 -14 -10 -25 -10 -13 0 -19 10 -23 38 -5 35 -60 206 -79 244 -4 10 -8 33 -8
51 0 18 -4 37 -9 42 -5 6 -12 33 -15 60 -4 28 -11 88 -17 135 -14 111 -15 354
-1 455 10 77 18 113 42 200 6 22 15 54 19 70 39 138 117 255 171 255 15 0 53
-12 84 -26z m661 -1471 c11 -3 63 -9 115 -14 118 -10 180 -21 250 -44 85 -28
230 -103 272 -141 21 -19 44 -34 50 -34 14 0 128 -110 128 -123 0 -5 20 -33
45 -61 25 -29 45 -60 45 -68 0 -9 8 -26 19 -39 10 -13 26 -40 36 -59 9 -19 25
-44 35 -55 28 -30 34 -69 16 -88 -9 -8 -16 -32 -16 -53 0 -32 9 -46 62 -100
50 -51 72 -66 117 -80 31 -9 65 -20 76 -24 11 -5 34 -11 50 -14 17 -3 53 -10
80 -16 28 -6 79 -15 115 -20 36 -4 81 -13 100 -19 53 -17 275 -14 334 4 30 9
90 15 156 15 59 0 111 5 116 10 7 7 57 10 130 8 118 -3 119 -3 124 -28 3 -14
13 -37 24 -52 l18 -28 129 0 c74 0 130 4 134 10 3 6 24 10 45 10 21 0 42 5 45
10 3 6 19 10 36 10 16 0 29 -4 29 -10 0 -5 13 -10 29 -10 17 0 33 5 36 10 3 6
17 10 31 10 13 0 24 -4 24 -10 0 -5 -8 -10 -18 -10 -10 0 -22 -4 -28 -10 -5
-5 -59 -35 -119 -66 -61 -31 -117 -62 -125 -69 -8 -7 -53 -32 -100 -55 -47
-23 -92 -48 -100 -55 -20 -17 -401 -207 -471 -235 -111 -44 -147 -59 -249
-105 -58 -25 -109 -50 -114 -56 -6 -5 -23 -9 -38 -9 -16 0 -42 -7 -57 -15 -41
-20 -113 -45 -135 -45 -20 0 -219 -65 -248 -81 -10 -5 -27 -9 -37 -9 -11 0
-23 -5 -26 -10 -3 -5 -15 -10 -25 -10 -11 0 -67 -25 -125 -55 -57 -30 -114
-55 -125 -55 -11 0 -28 -4 -38 -9 -20 -10 -90 -29 -152 -41 -25 -5 -65 -14
-90 -20 -57 -14 -111 -26 -175 -39 -27 -6 -79 -18 -115 -26 -36 -9 -78 -18
-95 -21 -16 -3 -43 -9 -59 -14 -16 -6 -44 -10 -62 -10 -18 0 -36 -4 -39 -10
-4 -6 -55 -10 -120 -10 -65 0 -116 4 -120 10 -3 6 -27 10 -52 10 -55 0 -83 21
-83 60 0 24 -7 30 -57 47 -32 11 -94 28 -138 38 -44 9 -87 19 -95 22 -67 25
-203 33 -315 18 -45 -6 -57 -2 -128 34 -43 23 -87 41 -97 41 -11 0 -42 -22
-70 -48 -43 -41 -50 -53 -50 -85 0 -32 8 -45 48 -85 26 -26 58 -52 72 -58 49
-22 97 -34 134 -34 24 0 39 -5 43 -16 8 -21 -14 -34 -58 -34 -19 0 -59 -11
-87 -25 -29 -14 -64 -25 -79 -25 -15 0 -40 -4 -57 -9 -110 -34 -174 -51 -194
-51 -12 0 -30 -4 -40 -9 -36 -20 -135 -61 -146 -61 -26 0 -95 -41 -101 -60 -9
-30 -45 -26 -45 5 0 30 -43 63 -63 47 -6 -6 -41 -12 -77 -15 -36 -2 -74 -7
-86 -11 -20 -7 -21 -5 -16 42 4 43 1 51 -19 66 -14 10 -43 16 -76 16 -28 0
-55 5 -58 10 -3 6 -22 10 -41 10 -44 0 -176 42 -252 81 -31 16 -64 29 -73 29
-9 0 -22 6 -28 14 -7 8 -32 21 -57 30 -43 14 -83 42 -168 117 -22 20 -57 45
-76 56 -21 12 -36 29 -38 42 -3 20 -1 21 17 12 30 -16 191 -14 241 4 25 9 64
13 97 11 30 -2 71 1 91 6 44 11 146 27 219 35 29 2 53 9 53 14 0 5 8 9 17 9 9
0 30 4 47 9 17 5 58 17 91 26 33 10 84 30 113 46 29 16 60 29 67 29 19 0 131
57 150 76 20 20 19 53 -2 76 -22 24 -75 23 -98 -2 -23 -26 -47 -25 -71 1 -10
12 -45 34 -77 51 -32 16 -77 46 -100 67 -23 20 -72 56 -108 79 -60 39 -170
143 -209 198 -12 18 -95 117 -154 184 -7 8 -31 40 -54 70 -23 30 -62 80 -87
110 -82 101 -122 155 -149 205 -16 28 -33 56 -39 64 -12 14 -67 140 -67 153 0
4 -12 33 -27 65 -24 53 -34 92 -50 196 -3 20 -9 40 -14 43 -5 3 -9 38 -9 78
l0 74 33 7 c73 17 242 5 342 -25 22 -7 55 -14 73 -17 18 -3 35 -9 38 -14 3 -5
15 -9 28 -9 12 0 37 -11 56 -25 19 -14 42 -25 52 -25 10 0 35 -10 56 -23 20
-13 62 -35 92 -50 30 -14 87 -49 125 -76 61 -44 111 -72 215 -120 14 -6 52
-27 85 -46 33 -19 68 -35 78 -35 9 0 25 -4 35 -9 9 -5 35 -18 57 -28 l40 -18
-34 -3 c-19 -2 -44 1 -55 6 -63 30 -117 52 -126 52 -6 0 -29 9 -53 20 -23 11
-69 28 -102 39 -154 49 -602 274 -643 324 -6 7 -34 24 -63 37 -47 22 -53 23
-77 9 -15 -8 -28 -24 -30 -36 -5 -31 15 -63 39 -63 11 0 49 -23 86 -51 90 -69
453 -250 623 -310 52 -19 77 -29 245 -95 39 -15 74 -31 80 -36 5 -4 20 -8 34
-8 24 0 35 -3 143 -35 58 -18 131 -16 151 4 6 6 10 27 9 47 -2 57 42 130 144
236 36 38 77 71 92 74 15 4 38 16 52 28 40 35 103 73 131 80 14 3 45 19 70 36
24 16 54 30 66 30 21 0 73 25 118 56 11 8 32 14 47 14 15 0 42 9 60 20 18 11
47 20 65 20 17 0 34 4 37 9 7 11 46 17 321 49 69 7 131 6 170 -5z m3015 -892
c0 -28 -47 -61 -86 -61 -18 0 -35 -4 -38 -9 -6 -10 -36 -18 -116 -32 -106 -19
-140 -21 -140 -10 0 14 69 58 140 90 37 16 83 26 140 31 47 4 88 7 93 8 4 1 7
-7 7 -17z m70 -404 c0 -13 -9 -32 -21 -43 -12 -10 -37 -43 -56 -71 -37 -55
-52 -62 -93 -38 -14 8 -38 15 -55 15 -16 0 -36 4 -44 9 -11 7 -9 12 10 24 34
21 242 126 252 127 4 0 7 -11 7 -23z m-350 -176 c0 -22 -25 -45 -40 -36 -13 8
-13 28 2 43 18 18 38 14 38 -7z m-877 -357 c3 -3 2 -14 -3 -23 -17 -33 -40
-102 -40 -124 -1 -12 -7 -33 -15 -47 l-13 -25 -11 25 c-6 14 -27 45 -45 70
-43 56 -45 77 -8 86 15 4 41 15 57 25 31 18 67 24 78 13z m-1110 -491 c-3 -38
-10 -76 -14 -85 -5 -9 -9 -35 -9 -57 0 -54 -17 -53 -76 1 -64 59 -93 138 -51
138 7 0 42 16 77 35 36 19 68 35 72 35 4 0 5 -30 1 -67z m-2838 -233 c4 -6
-12 -10 -40 -10 -28 0 -44 4 -40 10 3 6 21 10 40 10 19 0 37 -4 40 -10z m3139
-19 c3 -4 3 -11 0 -14 -8 -8 -34 3 -34 14 0 11 27 12 34 0z m-54 -32 c0 -5
-16 -9 -35 -9 -19 0 -35 -4 -35 -10 0 -5 -18 -10 -39 -10 -22 0 -43 -4 -46
-10 -6 -10 -45 -14 -45 -4 0 16 33 34 62 34 19 0 38 4 44 9 20 19 94 19 94 0z
m-3200 -79 c0 -5 -14 -10 -31 -10 -17 0 -28 4 -24 10 3 6 17 10 31 10 13 0 24
-4 24 -10z"/>
<path d="M1723 3318 c-12 -13 -28 -45 -37 -71 -9 -27 -23 -61 -31 -77 -8 -16
-15 -40 -15 -54 0 -14 -4 -28 -10 -31 -16 -10 -13 -305 4 -351 27 -75 75 -170
96 -189 16 -15 26 -17 48 -9 23 8 27 16 30 52 2 31 -2 49 -17 69 -12 14 -21
33 -21 43 0 9 -3 20 -7 24 -4 3 -13 23 -20 44 -15 44 -18 268 -3 277 6 3 10
20 10 36 0 16 9 47 20 69 11 22 20 46 20 55 0 8 10 19 23 24 35 13 49 36 41
65 -12 50 -94 64 -131 24z"/>
<path d="M3985 3128 c-49 -17 -115 -51 -115 -58 0 -5 -10 -10 -23 -14 -22 -5
-67 -73 -67 -101 0 -25 51 -75 76 -75 33 0 134 50 167 82 16 17 27 39 27 55 0
18 10 35 28 50 l27 23 -28 25 c-30 27 -45 29 -92 13z"/>
<path d="M2514 2597 c-109 -56 -134 -99 -99 -167 14 -28 19 -30 74 -30 56 0
142 23 199 54 15 8 35 17 45 20 14 4 17 17 17 72 0 82 -11 93 -95 93 -51 0
-73 -6 -141 -42z"/>
<path d="M5267 5557 c-3 -8 5 -25 19 -38 13 -12 24 -31 24 -41 0 -10 5 -18 10
-18 6 0 10 -9 10 -20 0 -11 5 -20 10 -20 6 0 10 -9 10 -19 0 -11 5 -23 10 -26
6 -3 10 -15 10 -26 0 -10 4 -19 9 -19 5 0 11 -8 15 -17 3 -10 14 -31 25 -48
11 -16 20 -37 20 -45 1 -9 10 -22 21 -30 11 -8 20 -22 20 -32 0 -22 16 -32 24
-13 3 8 -5 26 -19 39 -14 14 -25 32 -25 41 0 8 -4 15 -10 15 -5 0 -10 9 -10
20 0 11 -4 20 -10 20 -5 0 -10 9 -10 20 0 11 -7 23 -16 27 -8 3 -13 12 -10 20
3 7 -1 16 -9 19 -8 4 -15 14 -15 24 0 11 -4 22 -10 25 -5 3 -10 15 -10 26 0
10 -4 19 -10 19 -5 0 -10 9 -10 19 0 11 -4 21 -9 23 -5 2 -18 18 -29 36 -14
24 -21 29 -25 19z"/>
<path d="M5510 5110 c0 -11 5 -20 10 -20 6 0 10 -7 10 -15 0 -14 36 -85 49
-95 7 -6 26 -46 35 -72 3 -10 10 -18 16 -18 16 0 12 40 -5 46 -8 4 -15 14 -15
23 0 9 -9 23 -20 31 -11 8 -20 22 -20 32 0 10 -4 18 -10 18 -5 0 -10 6 -10 13
0 15 -29 77 -36 77 -2 0 -4 -9 -4 -20z"/>
<path d="M5635 4881 c-3 -5 2 -16 10 -24 8 -9 15 -23 15 -31 0 -9 5 -16 10
-16 6 0 10 6 10 14 0 8 -4 18 -10 21 -5 3 -10 15 -10 26 0 20 -15 26 -25 10z"/>
<path d="M5688 4788 c7 -7 12 -18 12 -26 0 -15 24 -42 37 -42 5 0 10 -10 10
-22 1 -13 7 -24 13 -26 5 -2 10 -12 10 -23 0 -10 5 -19 10 -19 6 0 10 -9 10
-20 0 -11 5 -20 10 -20 6 0 10 -6 10 -13 0 -20 51 -117 61 -117 15 0 10 30 -6
36 -8 4 -15 15 -15 25 0 10 -4 19 -10 19 -5 0 -10 11 -10 25 0 14 -4 25 -10
25 -5 0 -10 9 -10 20 0 11 -4 20 -10 20 -5 0 -10 9 -10 20 0 11 -4 20 -10 20
-5 0 -10 9 -10 19 0 11 -11 28 -25 39 -14 11 -25 25 -25 32 0 13 -24 40 -36
40 -5 0 -3 -5 4 -12z"/>
<path d="M6360 4530 c0 -5 -20 -10 -45 -10 -25 0 -45 -4 -45 -10 0 -5 -13 -10
-29 -10 -17 0 -33 -4 -36 -10 -3 -5 -19 -10 -36 -10 -16 0 -29 -4 -29 -10 0
-5 14 -10 30 -10 17 0 30 5 30 10 0 6 16 10 35 10 19 0 35 5 35 10 0 6 18 10
39 10 22 0 43 5 46 10 3 6 15 10 26 10 10 0 19 5 19 10 0 6 -9 10 -20 10 -11
0 -20 -4 -20 -10z"/>
<path d="M6054 4445 c-4 -10 -20 -15 -45 -15 -22 0 -39 -5 -39 -11 0 -7 12 -9
35 -5 19 3 52 9 73 12 60 9 69 13 52 24 -23 15 -70 12 -76 -5z"/>
<path d="M5878 4423 c-2 -21 -9 -29 -28 -31 -14 -2 -29 -8 -34 -13 -6 -5 -36
-9 -67 -9 -32 0 -61 -4 -64 -10 -3 -5 -24 -10 -45 -10 -46 0 -61 -15 -24 -24
29 -8 64 1 64 15 0 5 29 9 65 9 37 0 65 4 65 10 0 15 72 12 93 -4 9 -7 17 -20
17 -28 0 -8 9 -23 20 -33 11 -10 20 -24 20 -30 0 -7 7 -18 15 -25 8 -7 15 -23
15 -36 0 -28 17 -61 43 -85 9 -9 17 -21 17 -26 0 -6 8 -25 17 -44 14 -28 18
-31 21 -14 3 10 -1 21 -7 23 -6 2 -11 11 -11 21 0 9 -9 27 -20 39 -11 12 -20
28 -20 37 0 8 -6 15 -14 15 -9 0 -12 7 -9 20 7 25 -19 80 -46 100 -12 8 -21
22 -21 32 0 9 -4 20 -10 23 -18 11 -10 43 13 50 20 7 19 8 -10 12 -25 3 -33 9
-33 24 0 29 -18 23 -22 -8z"/>
<path d="M5550 4315 c-7 -9 -29 -15 -51 -15 -22 0 -39 -4 -39 -10 0 -5 -22
-10 -49 -10 -28 0 -53 -4 -56 -10 -3 -5 -24 -10 -46 -10 -21 0 -39 -4 -39 -10
0 -5 -22 -10 -49 -10 -28 0 -53 -4 -56 -10 -10 -16 82 -16 100 1 5 5 26 9 47
9 21 0 38 5 38 10 0 6 25 10 55 10 30 0 55 5 55 10 0 6 15 10 33 10 39 0 100
27 92 41 -9 13 -21 11 -35 -6z"/>
<path d="M5075 4210 c-3 -6 0 -13 9 -16 22 -8 59 -1 64 14 5 15 -64 17 -73 2z"/>
<path d="M5005 4180 c3 -5 17 -10 30 -10 13 0 27 5 30 10 4 6 -8 10 -30 10
-22 0 -34 -4 -30 -10z"/>
<path d="M6360 2041 c0 -5 6 -11 13 -14 7 -2 8 -8 3 -13 -5 -5 -11 -4 -13 4
-6 14 -59 16 -68 2 -3 -5 -24 -10 -45 -10 -21 0 -42 -4 -45 -10 -3 -5 -24 -10
-46 -10 -21 0 -39 -4 -39 -10 0 -5 -18 -10 -39 -10 -42 0 -63 -16 -40 -31 7
-4 10 -11 7 -15 -4 -3 -13 0 -21 8 -16 15 -87 13 -87 -3 0 -5 -18 -9 -39 -9
-22 0 -43 -4 -46 -10 -3 -5 -22 -10 -40 -10 -19 0 -50 -9 -70 -20 -20 -11 -42
-20 -51 -20 -8 0 -26 -7 -39 -16 -14 -9 -25 -13 -25 -10 0 4 -13 0 -30 -9 -16
-8 -42 -15 -59 -15 -16 0 -33 -4 -36 -10 -3 -5 -24 -10 -45 -10 -21 0 -42 -4
-45 -10 -3 -5 -21 -10 -40 -10 -19 0 -37 -4 -40 -10 -3 -5 -23 -10 -44 -10
-20 0 -42 -5 -47 -10 -6 -6 -24 -12 -40 -14 -16 -2 -32 -4 -36 -5 -5 0 -8 -5
-8 -11 0 -16 70 -12 76 4 4 10 20 15 47 14 23 0 43 5 45 11 2 6 27 11 58 11
30 0 54 5 54 10 0 6 22 10 49 10 28 0 53 5 56 10 3 6 24 10 45 10 21 0 42 5
45 10 3 6 17 10 30 10 13 0 27 5 30 10 3 6 19 10 34 10 16 0 34 7 41 15 7 8
27 15 46 15 18 0 36 5 39 10 3 6 24 10 45 10 21 0 42 5 45 10 3 6 26 10 50 10
24 0 47 5 50 10 3 6 28 10 54 10 26 0 51 4 57 9 5 5 27 11 49 13 41 3 51 21
15 26 -11 2 -20 8 -20 13 0 12 37 12 45 -1 8 -13 65 -13 65 -1 0 5 -6 11 -12
14 -8 2 -9 8 -4 13 5 5 11 4 13 -3 6 -18 61 -16 79 1 21 21 17 46 -6 46 -11 0
-20 -4 -20 -9z m-202 -89 c3 -9 -2 -13 -14 -10 -9 1 -19 9 -22 16 -3 9 2 13
14 10 9 -1 19 -9 22 -16z"/>
<path d="M6340 1780 c0 -5 -25 -10 -55 -10 -30 0 -55 -4 -55 -10 0 -5 25 -10
55 -10 30 0 55 5 55 10 0 6 14 10 30 10 17 0 30 5 30 10 0 6 -13 10 -30 10
-16 0 -30 -4 -30 -10z"/>
<path d="M6120 1740 c0 -6 -26 -10 -59 -10 -40 0 -63 -5 -71 -15 -9 -11 -33
-15 -86 -15 -43 0 -74 -4 -74 -10 0 -6 -35 -10 -85 -10 -50 0 -85 -4 -85 -10
0 -6 -28 -10 -64 -10 -36 0 -68 -4 -71 -10 -3 -5 -26 -10 -50 -10 -24 0 -47
-4 -50 -10 -3 -5 -28 -10 -55 -10 -55 0 -83 -8 -74 -21 9 -15 101 -10 118 6 9
9 33 15 60 15 25 0 46 5 46 10 0 6 28 10 64 10 36 0 68 5 71 10 3 6 44 10 91
10 49 0 84 4 84 10 0 6 30 10 69 10 39 0 73 5 76 10 3 6 35 10 71 10 49 0 66
4 70 15 4 9 11 15 18 14 6 -1 28 -1 49 0 56 2 45 21 -13 21 -27 0 -50 -4 -50
-10z"/>
<path d="M5025 1690 c-3 -5 -35 -10 -71 -10 -35 0 -64 -3 -64 -6 0 -27 101
-47 115 -24 3 6 24 10 46 10 21 0 39 5 39 10 0 6 11 10 24 10 14 0 28 5 31 10
4 6 -16 10 -54 10 -33 0 -63 -4 -66 -10z"/>
<path d="M5180 1580 c0 -5 -25 -10 -55 -10 -30 0 -55 -4 -55 -10 0 -5 -25 -10
-55 -10 -30 0 -55 -4 -55 -10 0 -6 -28 -10 -65 -10 -37 0 -65 -4 -65 -10 0 -5
-22 -10 -49 -10 -30 0 -53 -5 -60 -14 -9 -10 -26 -13 -57 -9 -31 3 -53 0 -69
-11 -14 -9 -45 -16 -72 -16 -34 0 -44 -3 -36 -11 7 -7 28 -9 55 -5 23 4 68 9
98 12 30 3 70 12 89 21 18 8 47 13 63 11 19 -3 32 0 35 9 4 9 25 13 69 13 36
0 64 4 64 10 0 6 22 10 49 10 28 0 53 5 56 10 3 6 28 10 55 10 27 0 52 5 55
10 3 6 25 10 48 10 23 0 49 5 57 10 11 7 -2 10 -42 10 -32 0 -58 -4 -58 -10z"/>
<path d="M6334 1495 c-4 -10 -14 -13 -30 -9 -30 8 -77 -3 -69 -16 3 -6 20 -10
36 -10 38 0 129 29 129 41 0 16 -60 10 -66 -6z"/>
<path d="M6120 1450 c0 -5 -24 -10 -54 -10 -30 0 -58 -4 -61 -10 -3 -5 -24
-10 -46 -10 -21 0 -39 -4 -39 -10 0 -5 -19 -10 -42 -10 -52 0 -91 -19 -43 -21
17 0 38 -2 48 -4 9 -2 24 3 31 11 8 8 30 14 50 14 19 0 38 5 41 10 3 6 28 10
55 10 27 0 52 5 55 10 3 6 28 10 56 10 27 0 49 5 49 10 0 6 -22 10 -50 10 -27
0 -50 -4 -50 -10z"/>
<path d="M4370 1430 c0 -5 -22 -10 -49 -10 -28 0 -53 -4 -56 -10 -3 -5 -33
-10 -65 -10 -32 0 -62 -4 -65 -10 -4 -6 18 -10 59 -10 37 0 66 4 66 10 0 6 25
10 55 10 30 0 55 5 55 10 0 6 22 10 49 10 28 0 53 5 56 10 4 6 -15 10 -49 10
-31 0 -56 -4 -56 -10z"/>
<path d="M3525 1390 c-4 -6 13 -10 44 -10 28 0 51 5 51 10 0 6 -20 10 -44 10
-25 0 -48 -4 -51 -10z"/>
<path d="M3845 1390 c-3 -5 -21 -10 -40 -10 -29 0 -61 -18 -38 -21 41 -7 61
-5 75 8 10 9 27 13 39 10 24 -6 49 1 49 14 0 12 -77 11 -85 -1z"/>
<path d="M1287 1370 c-3 -13 -11 -18 -20 -14 -8 3 -17 -2 -20 -10 -4 -10 -18
-16 -37 -16 -16 0 -30 -4 -30 -10 0 -5 -15 -10 -34 -10 -19 0 -51 -9 -73 -19
-21 -11 -51 -23 -68 -27 l-30 -8 35 -4 c19 -2 36 1 38 7 2 6 12 11 23 11 10 0
19 5 19 10 0 6 20 10 45 10 25 0 45 5 45 10 0 6 15 10 33 10 51 0 97 27 97 56
0 29 -16 32 -23 4z"/>
<path d="M3449 1364 c-11 -13 -31 -15 -111 -12 -74 2 -98 0 -98 -9 0 -20 199
-18 206 2 4 8 10 13 15 10 4 -3 20 -3 34 1 20 5 23 9 13 15 -20 13 -44 11 -59
-7z"/>
<path d="M4044 1365 c-4 -9 -19 -15 -35 -15 -16 0 -29 -4 -29 -10 0 -5 11 -10
24 -10 14 0 28 5 31 10 3 6 19 10 35 10 36 0 61 10 54 21 -9 15 -74 10 -80 -6z"/>
<path d="M5716 1365 c-11 -8 -39 -15 -63 -15 -24 0 -43 -4 -43 -10 0 -5 -18
-10 -40 -10 -22 0 -40 -4 -40 -10 0 -5 -20 -10 -45 -10 -25 0 -45 -4 -45 -10
0 -5 -18 -10 -39 -10 -22 0 -43 -4 -46 -10 -3 -5 -25 -10 -48 -10 -23 0 -49
-5 -57 -10 -17 -11 -19 -11 38 -14 27 -2 49 2 57 10 7 8 32 14 54 14 23 0 41
5 41 10 0 6 18 10 39 10 22 0 43 5 46 10 3 6 24 10 45 10 21 0 42 5 45 10 3 6
26 10 51 10 31 0 46 5 50 15 4 10 13 13 26 9 25 -8 71 4 63 16 -9 15 -67 11
-89 -5z"/>
<path d="M884 1345 c-10 -8 -36 -15 -56 -15 -21 0 -38 -4 -38 -10 0 -5 -7 -10
-15 -10 -8 0 -30 -9 -50 -20 -20 -11 -47 -20 -61 -20 -13 0 -27 -7 -31 -16 -3
-8 -12 -13 -20 -10 -7 3 -16 -1 -19 -9 -4 -8 -15 -15 -25 -15 -10 0 -19 -4
-19 -10 0 -5 -20 -10 -45 -10 -25 0 -45 -4 -45 -10 0 -5 -7 -10 -15 -10 -8 0
-30 -9 -50 -20 -20 -11 -47 -20 -60 -20 -16 0 -25 -6 -25 -15 0 -20 44 -20 60
0 7 8 16 13 20 10 5 -3 15 2 23 10 9 8 23 15 31 15 9 0 16 5 16 10 0 6 16 10
35 10 19 0 50 9 70 20 20 11 42 20 50 20 8 0 15 5 15 10 0 6 11 10 24 10 14 0
31 7 40 15 8 8 22 15 30 15 9 0 16 5 16 10 0 6 11 10 25 10 14 0 25 5 25 10 0
6 15 10 33 10 36 0 97 26 97 41 0 13 -13 11 -36 -6z"/>
<path d="M3690 1340 c0 -5 -13 -10 -30 -10 -16 0 -30 -4 -30 -10 0 -5 -18 -10
-39 -10 -22 0 -43 -4 -46 -10 -3 -5 -24 -10 -45 -10 -21 0 -42 -4 -45 -10 -3
-5 -21 -10 -39 -10 -36 0 -96 -26 -96 -41 0 -12 37 -12 42 1 2 5 21 11 43 13
21 2 41 9 43 16 2 6 23 11 48 11 24 0 44 5 44 10 0 6 18 10 39 10 22 0 43 5
46 10 3 6 19 10 36 10 16 0 29 5 29 10 0 6 13 10 29 10 17 0 33 5 36 10 4 6
-8 10 -29 10 -20 0 -36 -4 -36 -10z"/>
<path d="M3100 1320 c0 -5 -22 -10 -50 -10 -27 0 -50 -4 -50 -10 0 -5 23 -10
50 -10 28 0 50 5 50 10 0 6 28 10 65 10 37 0 65 4 65 10 0 6 -28 10 -65 10
-37 0 -65 -4 -65 -10z"/>
<path d="M3890 1320 c0 -5 -20 -10 -45 -10 -25 0 -45 -4 -45 -10 0 -5 -22 -10
-49 -10 -28 0 -53 -4 -56 -10 -3 -5 -28 -10 -55 -10 -49 0 -73 -13 -44 -24 30
-12 84 -6 90 9 5 11 21 15 60 15 30 0 54 5 54 10 0 6 18 10 39 10 22 0 43 5
46 10 3 6 24 10 46 10 21 0 39 5 39 10 0 6 -18 10 -40 10 -22 0 -40 -4 -40
-10z"/>
<path d="M2755 1280 c-3 -5 -42 -10 -86 -10 -44 0 -89 -5 -100 -11 -11 -5 -50
-10 -87 -10 -75 0 -105 -6 -97 -20 9 -14 151 -11 167 4 8 7 45 12 102 13 60 0
91 4 94 12 2 8 40 12 123 12 73 0 119 4 119 10 0 6 -45 10 -114 10 -66 0 -117
-4 -121 -10z"/>
<path d="M206 1261 c-7 -10 30 -19 57 -13 9 2 17 8 17 13 0 12 -67 12 -74 0z"/>
<path d="M135 1242 c-9 -10 7 -22 30 -22 36 0 39 17 5 22 -17 3 -32 2 -35 0z"/>
<path d="M925 1243 c-11 -3 -24 -9 -29 -14 -6 -5 -32 -9 -58 -9 -26 0 -48 -4
-48 -10 0 -5 -9 -10 -19 -10 -11 0 -23 -4 -26 -10 -3 -5 -24 -10 -46 -10 -21
0 -39 -4 -39 -10 0 -5 18 -10 40 -10 22 0 40 5 40 10 0 6 9 10 19 10 11 0 23
5 26 10 3 6 28 10 55 10 27 0 52 5 55 10 3 6 18 10 33 10 37 0 60 15 37 24 -9
3 -17 5 -18 5 -1 -1 -11 -3 -22 -6z"/>
<path d="M3450 1233 c0 -9 -14 -13 -44 -13 -26 0 -46 -5 -49 -12 -3 -10 -9
-10 -26 0 -23 13 -71 17 -71 5 0 -23 93 -43 105 -23 3 6 24 10 46 10 21 0 39
5 39 10 0 6 26 10 59 10 60 0 91 15 49 24 -46 10 -108 3 -108 -11z"/>
<path d="M5160 1236 c-7 -10 -28 -16 -51 -16 -22 0 -39 -4 -39 -10 0 -5 -18
-10 -39 -10 -22 0 -43 -4 -46 -10 -3 -5 -24 -10 -45 -10 -21 0 -42 -4 -45 -10
-3 -5 -17 -10 -30 -10 -13 0 -27 -4 -30 -10 -4 -6 7 -10 24 -10 17 0 31 5 31
10 0 6 20 10 45 10 25 0 45 5 45 10 0 6 18 10 39 10 22 0 43 5 46 10 3 6 24
10 45 10 21 0 42 5 45 10 3 6 24 10 46 10 28 0 39 4 37 13 -7 18 -63 21 -78 3z"/>
<path d="M3195 1190 c-3 -5 -24 -10 -45 -10 -21 0 -42 -4 -45 -10 -3 -5 -24
-10 -45 -10 -21 0 -41 -4 -45 -9 -8 -14 -65 -41 -86 -41 -10 0 -21 -4 -24 -10
-3 -5 -24 -10 -45 -10 -21 0 -42 -4 -45 -10 -3 -5 -21 -10 -40 -10 -19 0 -37
-4 -40 -10 -3 -5 -19 -10 -36 -10 -16 0 -29 -4 -29 -10 0 -5 18 -10 39 -10 22
0 43 5 46 10 3 6 24 10 46 10 21 0 39 5 39 10 0 6 14 10 30 10 17 0 30 5 30
10 0 6 24 10 54 10 30 0 58 5 61 10 3 6 28 10 56 10 50 0 58 7 37 28 -6 6 -9
15 -5 18 3 4 14 -1 23 -10 12 -12 25 -15 48 -10 39 8 44 13 26 24 -8 5 -11 13
-6 17 5 4 11 2 13 -4 6 -15 93 -18 93 -3 0 6 -9 10 -20 10 -11 0 -20 5 -20 10
0 6 -13 10 -29 10 -17 0 -33 -4 -36 -10z"/>
<path d="M6340 1170 c0 -5 14 -10 30 -10 17 0 30 5 30 10 0 6 -13 10 -30 10
-16 0 -30 -4 -30 -10z"/>
<path d="M571 1147 c-6 -8 -23 -12 -39 -9 -18 2 -35 -2 -45 -12 -8 -9 -27 -16
-41 -16 -14 0 -26 -4 -26 -10 0 -5 11 -10 24 -10 14 0 28 5 31 10 3 6 18 10
33 10 15 0 47 7 71 16 24 8 50 13 58 10 7 -3 13 1 13 9 0 19 -63 20 -79 2z"/>
<path d="M6230 1150 c0 -5 -13 -10 -29 -10 -37 0 -62 -10 -55 -21 8 -14 52
-10 79 7 14 9 39 14 61 12 23 -2 39 2 41 10 3 8 -10 12 -46 12 -28 0 -51 -4
-51 -10z"/>
<path d="M4776 1131 c-18 -7 -18 -8 -3 -14 21 -8 49 2 41 14 -6 10 -12 10 -38
0z"/>
<path d="M6088 1112 c-21 -2 -38 -7 -38 -13 0 -5 -18 -9 -40 -9 -22 0 -40 -4
-40 -10 0 -5 18 -10 40 -10 22 0 40 5 40 10 0 6 18 10 39 10 22 0 42 4 46 9 8
13 -4 17 -47 13z"/>
<path d="M285 1100 c3 -5 8 -10 11 -10 2 0 4 5 4 10 0 6 -5 10 -11 10 -5 0 -7
-4 -4 -10z"/>
<path d="M4700 1100 c0 -5 -20 -10 -45 -10 -25 0 -45 -4 -45 -10 0 -5 -18 -10
-39 -10 -22 0 -42 -4 -45 -9 -6 -8 -31 -14 -133 -27 -28 -4 -43 -11 -43 -20 0
-12 -9 -14 -40 -9 -31 5 -42 2 -46 -9 -4 -11 -20 -16 -50 -16 -24 0 -44 -4
-44 -10 0 -5 -18 -10 -39 -10 -22 0 -43 -4 -46 -10 -3 -5 -24 -10 -46 -10 -21
0 -39 -4 -39 -10 0 -5 -18 -10 -39 -10 -22 0 -42 -4 -45 -9 -9 -15 65 -19 79
-4 8 7 30 13 49 13 20 0 36 5 36 10 0 6 20 10 45 10 25 0 45 5 45 10 0 6 18
10 39 10 22 0 43 5 46 10 3 6 23 10 43 10 20 0 46 7 56 15 11 8 28 13 37 10 9
-3 24 1 32 10 9 8 33 15 56 15 23 0 41 5 41 10 0 6 18 10 39 10 22 0 43 5 46
10 3 6 24 10 45 10 21 0 42 5 45 10 3 6 17 10 30 10 13 0 27 5 30 10 4 6 -7
10 -24 10 -17 0 -31 -4 -31 -10z"/>
<path d="M220 1080 c0 -5 -9 -10 -20 -10 -11 0 -20 -4 -20 -10 0 -5 9 -10 20
-10 11 0 20 -4 20 -10 0 -5 -9 -10 -19 -10 -11 0 -23 5 -26 10 -3 6 -17 10
-30 10 -13 0 -27 -4 -30 -10 -3 -5 -15 -10 -26 -10 -10 0 -19 -4 -19 -9 0 -5
-10 -13 -22 -17 -22 -7 -48 -28 -48 -38 0 -10 79 -6 85 4 3 6 17 10 30 10 13
0 27 5 30 10 3 6 20 10 36 10 17 0 32 6 35 15 4 8 15 15 25 15 10 0 19 5 19
10 0 6 13 10 29 10 17 0 33 5 36 10 3 6 24 10 46 10 21 0 39 5 39 10 0 6 -18
10 -40 10 -22 0 -40 -4 -40 -10 0 -5 -9 -10 -19 -10 -11 0 -23 5 -26 10 -3 6
-19 10 -36 10 -16 0 -29 -4 -29 -10z m40 -20 c0 -5 -9 -10 -20 -10 -11 0 -20
5 -20 10 0 6 9 10 20 10 11 0 20 -4 20 -10z m-113 -47 c3 -7 -3 -9 -16 -6 -12
3 -21 10 -21 15 0 13 32 6 37 -9z m-57 -17 c0 -3 -4 -8 -10 -11 -5 -3 -10 -1
-10 4 0 6 5 11 10 11 6 0 10 -2 10 -4z"/>
<path d="M5880 1060 c0 -5 -25 -10 -55 -10 -30 0 -55 -4 -55 -10 0 -5 -23 -10
-50 -10 -36 0 -52 -4 -56 -15 -5 -12 -20 -15 -65 -13 -36 2 -63 -2 -71 -10 -7
-7 -34 -12 -60 -12 -26 0 -48 -4 -48 -9 0 -5 -28 -12 -62 -15 -139 -12 -178
-18 -178 -27 0 -5 -22 -9 -49 -9 -28 0 -52 -4 -55 -9 -3 -5 -26 -12 -51 -15
-25 -4 -43 -11 -40 -17 9 -14 68 -10 89 6 11 8 37 15 57 15 21 0 41 5 44 10 3
6 28 10 56 10 27 0 49 5 49 10 0 6 28 10 64 10 36 0 68 5 71 10 3 6 28 10 56
10 27 0 49 5 49 10 0 6 28 10 64 10 36 0 68 5 71 10 3 6 28 10 55 10 33 0 50
5 54 15 4 11 20 15 55 15 27 0 53 5 56 10 3 6 24 10 46 10 21 0 39 5 39 10 0
6 -18 10 -40 10 -22 0 -40 -4 -40 -10z"/>
<path d="M2578 1020 c-2 -6 -21 -13 -43 -15 -22 -3 -44 -10 -49 -15 -6 -6 -27
-10 -48 -10 -21 0 -38 -4 -38 -10 0 -5 -22 -10 -50 -10 -51 0 -60 -6 -38 -28
15 -15 84 -16 93 -2 3 6 21 10 40 10 19 0 37 5 40 10 3 6 19 10 35 10 16 0 32
5 35 10 3 6 15 10 25 10 21 0 80 31 80 43 0 11 -78 8 -82 -3z"/>
<path d="M2210 932 c0 -19 27 -32 67 -32 47 0 52 6 26 26 -19 14 -93 19 -93 6z"/>
<path d="M2120 912 c0 -19 38 -42 68 -42 37 0 49 15 28 35 -15 16 -96 21 -96
7z"/>
<path d="M2034 886 c-11 -8 -43 -17 -70 -19 -39 -3 -44 -5 -26 -11 12 -5 22
-12 22 -17 0 -12 -27 -11 -35 1 -3 6 -24 10 -46 10 -21 0 -39 -4 -39 -10 0 -5
-20 -10 -45 -10 -25 0 -45 -4 -45 -10 0 -5 -18 -10 -39 -10 -22 0 -43 -4 -46
-10 -3 -5 -21 -10 -38 -10 -18 0 -41 -7 -51 -15 -11 -8 -35 -15 -53 -15 -18 0
-33 -4 -33 -10 0 -5 20 -10 45 -10 25 0 45 -4 45 -10 0 -5 11 -10 24 -10 14 0
28 5 31 10 3 6 24 10 45 10 21 0 42 5 45 10 3 6 21 10 39 10 17 0 37 5 43 11
6 6 26 15 45 19 30 8 31 9 11 15 -13 4 -23 11 -23 16 0 12 27 11 35 -1 3 -5
24 -10 46 -10 21 0 39 5 39 10 0 6 20 10 45 10 46 0 54 7 33 28 -9 9 -9 12 0
12 7 0 12 -4 12 -10 0 -5 20 -10 45 -10 49 0 55 8 27 33 -23 21 -61 22 -88 3z
m-224 -86 c0 -5 -13 -10 -30 -10 -16 0 -30 5 -30 10 0 6 14 10 30 10 17 0 30
-4 30 -10z m-86 -26 c3 -9 -1 -14 -13 -14 -25 0 -51 10 -51 20 0 14 58 9 64
-6z m-89 -24 c-3 -5 -15 -10 -25 -10 -10 0 -22 5 -25 10 -4 6 7 10 25 10 18 0
29 -4 25 -10z"/>
<path d="M3865 890 c-18 -7 -19 -8 -2 -15 21 -9 50 1 42 15 -7 12 -13 12 -40
0z"/>
<path d="M3760 860 c0 -5 -20 -10 -45 -10 -25 0 -45 -4 -45 -10 0 -5 -18 -10
-39 -10 -22 0 -43 -4 -46 -10 -3 -5 -19 -10 -36 -10 -16 0 -29 -4 -29 -10 0
-5 14 -10 30 -10 17 0 30 5 30 10 0 6 20 10 45 10 25 0 45 5 45 10 0 6 18 10
39 10 22 0 43 5 46 10 3 6 24 10 46 10 21 0 39 5 39 10 0 6 -18 10 -40 10 -22
0 -40 -4 -40 -10z"/>
<path d="M4915 860 c-3 -5 -24 -10 -46 -10 -21 0 -39 -4 -39 -10 0 -5 -20 -10
-45 -10 -25 0 -45 -4 -45 -10 0 -6 -26 -10 -59 -10 -33 0 -63 -4 -66 -10 -3
-5 -29 -10 -56 -10 -35 0 -51 -4 -55 -15 -4 -10 -20 -15 -50 -15 -24 0 -44 -4
-44 -10 0 -5 -22 -10 -49 -10 -28 0 -53 -4 -56 -10 -3 -5 -28 -10 -56 -10 -27
0 -49 -4 -49 -10 0 -5 23 -10 50 -10 28 0 50 5 50 10 0 6 25 10 55 10 30 0 55
5 55 10 0 6 17 10 38 10 21 0 43 5 49 11 6 6 32 11 57 11 32 0 49 4 53 14 4
10 23 14 69 14 36 0 64 4 64 10 0 6 18 10 39 10 22 0 43 5 46 10 3 6 24 10 46
10 21 0 39 5 39 10 0 6 13 10 29 10 17 0 33 5 36 10 4 6 -6 10 -24 10 -16 0
-33 -4 -36 -10z"/>
<path d="M3436 775 c-8 -8 -29 -15 -46 -15 -18 0 -29 -4 -25 -10 3 -5 17 -10
30 -10 13 0 27 5 30 10 3 6 24 10 45 10 41 0 61 14 34 24 -26 10 -52 7 -68 -9z"/>
<path d="M6270 750 c0 -5 -18 -10 -39 -10 -22 0 -43 -4 -46 -10 -3 -5 -17 -10
-30 -10 -13 0 -27 -4 -30 -10 -3 -5 -24 -10 -45 -10 -21 0 -42 -4 -45 -10 -3
-5 -23 -10 -44 -10 -20 0 -42 -5 -47 -10 -6 -6 -33 -12 -60 -14 -27 -2 -55 -4
-62 -5 -7 0 -10 -5 -7 -11 10 -17 115 -12 121 5 5 11 15 14 39 9 22 -4 37 -1
48 10 8 9 31 16 51 16 19 0 38 5 41 10 3 6 19 10 36 10 16 0 29 5 29 10 0 6
20 10 45 10 25 0 45 5 45 10 0 6 26 10 59 10 33 0 63 5 66 10 4 6 -18 10 -59
10 -37 0 -66 -4 -66 -10z"/>
<path d="M1400 730 c0 -5 -18 -10 -39 -10 -22 0 -43 -4 -46 -10 -3 -5 -28 -10
-55 -10 -27 0 -52 -4 -55 -10 -3 -5 -25 -10 -48 -10 -24 0 -53 -7 -65 -16 -12
-8 -32 -15 -45 -14 -37 3 -48 1 -42 -10 8 -13 68 -13 80 -1 16 15 108 17 113
3 2 -8 -7 -12 -27 -12 -17 0 -31 -4 -31 -10 0 -5 -16 -10 -35 -10 -19 0 -35
-4 -35 -10 0 -5 -13 -10 -29 -10 -17 0 -33 -4 -36 -10 -3 -5 -24 -10 -46 -10
-21 0 -39 -4 -39 -10 0 -16 72 -16 78 1 2 5 17 9 32 9 16 0 32 5 35 10 3 6 19
10 35 10 16 0 32 5 35 10 3 6 19 10 36 10 16 0 29 5 29 10 0 6 18 10 41 10 22
0 49 5 60 10 10 6 40 12 66 13 26 2 48 8 51 15 2 7 22 12 48 12 24 0 44 5 44
10 0 6 14 10 30 10 17 0 30 5 30 10 0 6 -13 10 -30 10 -16 0 -30 -4 -30 -10 0
-5 -18 -10 -39 -10 -22 0 -43 -4 -46 -10 -3 -5 -30 -10 -60 -10 -30 0 -55 -5
-57 -11 -5 -16 -100 -17 -105 -1 -3 9 11 12 51 12 31 0 56 5 56 10 0 6 18 10
39 10 22 0 43 5 46 10 3 6 24 10 46 10 21 0 39 5 39 10 0 6 -18 10 -40 10 -22
0 -40 -4 -40 -10z"/>
<path d="M3275 730 c-3 -5 -28 -10 -56 -10 -27 0 -49 -4 -49 -10 0 -5 -22 -10
-49 -10 -28 0 -53 -4 -56 -10 -3 -5 -24 -10 -45 -10 -43 0 -61 -15 -31 -25 23
-7 71 4 71 16 0 5 22 9 49 9 28 0 53 5 56 10 3 6 28 10 55 10 27 0 52 5 55 10
3 6 24 10 46 10 21 0 39 5 39 10 0 6 -18 10 -39 10 -22 0 -43 -4 -46 -10z"/>
<path d="M4090 690 c-8 -5 -36 -10 -62 -10 -26 0 -49 -4 -52 -9 -4 -5 -29 -12
-56 -16 -28 -4 -50 -11 -50 -16 0 -5 -20 -9 -45 -9 -25 0 -45 -4 -45 -10 0 -5
-18 -10 -39 -10 -22 0 -43 -4 -46 -10 -3 -5 -19 -10 -36 -10 -16 0 -29 -4 -29
-10 0 -5 14 -10 30 -10 17 0 30 5 30 10 0 6 18 10 39 10 22 0 43 5 46 10 3 6
24 10 45 10 21 0 42 5 45 10 3 6 28 10 55 10 33 0 50 5 54 15 4 10 14 13 35 9
18 -4 42 0 62 10 18 9 52 16 76 16 23 0 43 5 43 10 0 13 -80 13 -100 0z"/>
<path d="M2927 652 c-9 -2 -15 -8 -12 -13 8 -12 42 -12 49 0 7 11 -13 19 -37
13z"/>
<path d="M2868 632 c-16 -2 -28 -8 -28 -13 0 -12 57 -12 65 0 7 13 -5 17 -37
13z"/>
<path d="M940 620 c0 -5 -13 -10 -30 -10 -16 0 -30 -4 -30 -10 0 -5 -20 -10
-45 -10 -25 0 -45 -4 -45 -10 0 -5 18 -10 39 -10 22 0 43 5 46 10 3 6 19 10
36 10 16 0 29 5 29 10 0 6 14 10 30 10 17 0 30 5 30 10 0 6 -13 10 -30 10 -16
0 -30 -4 -30 -10z"/>
<path d="M5720 620 c0 -5 -13 -10 -30 -10 -16 0 -30 -4 -30 -10 0 -5 -18 -10
-39 -10 -22 0 -43 -4 -46 -10 -3 -5 -17 -10 -30 -10 -13 0 -27 -4 -30 -10 -4
-6 7 -10 24 -10 17 0 31 5 31 10 0 6 18 10 39 10 22 0 43 5 46 10 3 6 19 10
36 10 16 0 29 5 29 10 0 6 18 10 39 10 22 0 43 5 46 10 4 6 -12 10 -39 10 -25
0 -46 -4 -46 -10z"/>
<path d="M2775 600 c-3 -5 -19 -10 -36 -10 -16 0 -29 -4 -29 -10 0 -5 14 -10
30 -10 17 0 30 5 30 10 0 6 14 10 30 10 17 0 30 5 30 10 0 6 -11 10 -24 10
-14 0 -28 -4 -31 -10z"/>
<path d="M680 560 c0 -5 -12 -13 -26 -16 -24 -6 -25 -8 -9 -17 14 -7 21 -6 30
7 9 11 28 16 64 16 32 0 50 4 46 10 -8 13 -105 13 -105 0z"/>
<path d="M2645 560 c-4 -6 8 -10 30 -10 22 0 34 4 30 10 -3 6 -17 10 -30 10
-13 0 -27 -4 -30 -10z"/>
<path d="M3545 560 c-4 -6 10 -10 34 -10 23 0 41 5 41 10 0 6 -15 10 -34 10
-19 0 -38 -4 -41 -10z"/>
<path d="M836 535 c-8 -8 -22 -15 -30 -15 -9 0 -16 -4 -16 -10 0 -5 -20 -10
-45 -10 -25 0 -45 -4 -45 -10 0 -5 -25 -10 -55 -10 -30 0 -55 -4 -55 -10 0 -5
-17 -10 -38 -10 -21 0 -42 -4 -47 -9 -16 -15 -88 -18 -93 -3 -2 7 6 12 22 12
14 0 26 5 26 10 0 6 18 10 39 10 22 0 43 5 46 10 3 6 21 10 40 10 19 0 37 5
40 10 4 6 -10 10 -34 10 -22 0 -43 -4 -46 -10 -3 -5 -24 -10 -46 -10 -21 0
-39 -4 -39 -10 0 -5 -9 -10 -19 -10 -11 0 -23 -5 -26 -10 -3 -6 -16 -10 -29
-10 -12 0 -26 -4 -32 -9 -5 -5 -26 -11 -47 -13 -38 -3 -48 -23 -12 -24 29 0
25 -19 -4 -19 -14 -1 -26 -6 -29 -13 -4 -14 -72 -16 -72 -2 0 16 -25 11 -47
-9 -13 -12 -39 -21 -67 -23 -26 -2 -46 -7 -45 -13 0 -5 8 -9 16 -7 9 2 27 -2
40 -9 19 -10 28 -10 43 -1 11 7 29 12 40 12 11 0 20 5 20 10 0 6 16 10 35 10
19 0 35 5 35 10 0 6 13 10 29 10 17 0 33 5 36 10 3 6 21 10 39 10 19 0 39 7
47 16 9 11 22 14 46 9 25 -4 35 -2 39 10 4 10 20 15 50 15 24 0 44 5 44 10 0
6 25 10 55 10 30 0 55 5 55 10 0 6 16 10 35 10 19 0 49 8 68 19 18 10 52 22
75 26 23 4 40 11 36 16 -9 14 -61 10 -78 -6z m-431 -105 c16 -7 13 -9 -17 -9
-21 -1 -38 4 -38 9 0 12 27 12 55 0z m-215 -70 c0 -5 -6 -10 -14 -10 -8 0 -18
5 -21 10 -3 6 3 10 14 10 12 0 21 -4 21 -10z"/>
<path d="M2570 540 c-12 -8 -12 -10 3 -16 9 -3 29 -3 44 1 21 5 24 8 12 16
-18 11 -40 11 -59 -1z"/>
<path d="M3455 538 c-3 -8 -23 -15 -48 -17 -23 -1 -43 -6 -45 -12 -2 -5 -21
-9 -42 -9 -21 0 -42 -4 -45 -10 -3 -5 -24 -10 -46 -10 -21 0 -39 -4 -39 -10 0
-5 -22 -10 -48 -10 -26 0 -52 -4 -57 -9 -6 -5 -27 -11 -48 -13 -49 -4 -53 -23
-4 -25 25 0 40 4 44 13 3 10 22 14 59 14 30 0 54 5 54 10 0 6 20 10 45 10 25
0 45 5 45 10 0 6 18 10 40 10 22 0 40 5 40 10 0 6 17 10 38 10 21 0 42 4 48 9
5 5 25 11 44 13 48 4 53 22 7 26 -24 2 -39 -1 -42 -10z"/>
<path d="M5424 535 c-4 -10 -20 -15 -50 -15 -24 0 -44 -4 -44 -10 0 -5 -13
-10 -30 -10 -16 0 -30 -4 -30 -10 0 -5 11 -10 24 -10 14 0 28 5 31 10 3 6 23
10 44 10 20 0 41 4 47 9 5 5 24 11 43 13 19 2 36 9 39 16 6 18 -67 16 -74 -3z"/>
<path d="M2490 510 c0 -5 -13 -10 -30 -10 -16 0 -30 -4 -30 -10 0 -5 11 -10
24 -10 14 0 28 5 31 10 3 6 17 10 30 10 13 0 27 5 30 10 4 6 -7 10 -24 10 -17
0 -31 -4 -31 -10z"/>
<path d="M2360 470 c0 -5 -13 -10 -29 -10 -17 0 -33 -4 -36 -10 -3 -5 -17 -10
-30 -10 -32 0 -41 -17 -13 -26 14 -4 25 -1 33 10 7 9 26 16 44 16 17 0 31 5
31 10 0 6 14 10 30 10 17 0 30 5 30 10 0 6 -13 10 -30 10 -16 0 -30 -4 -30
-10z"/>
<path d="M5200 470 c0 -5 -18 -10 -40 -10 -24 0 -43 -5 -46 -13 -3 -9 -16 -12
-34 -9 -17 2 -30 0 -30 -6 0 -20 19 -23 56 -7 20 8 49 15 65 15 16 0 29 5 29
10 0 6 14 10 30 10 17 0 30 5 30 10 0 6 -13 10 -30 10 -16 0 -30 -4 -30 -10z"/>
<path d="M2166 404 c-8 -8 -26 -14 -40 -14 -14 0 -26 -4 -26 -10 0 -5 -9 -10
-19 -10 -11 0 -23 -4 -26 -10 -3 -5 -19 -10 -36 -10 -16 0 -29 -4 -29 -10 0
-5 14 -10 30 -10 17 0 30 5 30 10 0 6 9 10 19 10 11 0 23 5 26 10 3 6 19 10
35 10 15 0 30 6 33 14 4 9 14 12 25 9 11 -2 22 0 26 5 10 16 -33 21 -48 6z"/>
<path d="M2924 409 c-17 -6 -17 -8 -2 -14 22 -9 64 -2 58 10 -6 12 -31 14 -56
4z"/>
<path d="M4998 413 c-10 -2 -18 -9 -18 -14 0 -5 -18 -9 -40 -9 -22 0 -40 -4
-40 -10 0 -5 -16 -10 -35 -10 -19 0 -35 -4 -35 -10 0 -5 13 -10 29 -10 17 0
33 5 36 10 3 6 21 10 40 10 19 0 37 5 40 10 3 6 20 10 36 10 19 0 29 4 27 12
-5 14 -17 17 -40 11z"/>
<path d="M200 400 c0 -5 11 -10 24 -10 14 0 28 5 31 10 4 6 -7 10 -24 10 -17
0 -31 -4 -31 -10z"/>
<path d="M2878 393 c-10 -2 -18 -9 -18 -14 0 -5 -13 -9 -30 -9 -16 0 -30 -4
-30 -10 0 -5 -16 -10 -35 -10 -19 0 -35 -4 -35 -10 0 -5 -18 -10 -39 -10 -22
0 -43 -4 -46 -10 -3 -5 -24 -10 -45 -10 -21 0 -40 -5 -42 -11 -2 -5 -22 -13
-46 -16 -23 -3 -42 -10 -42 -14 0 -5 -20 -9 -45 -9 -25 0 -45 -4 -45 -10 0 -5
-18 -10 -39 -10 -22 0 -43 -4 -46 -10 -3 -5 -17 -10 -30 -10 -13 0 -27 -5 -30
-10 -4 -6 6 -10 24 -10 16 0 33 5 36 10 3 6 24 10 46 10 21 0 39 5 39 10 0 6
18 10 39 10 22 0 43 4 46 10 3 6 24 10 45 10 21 0 42 5 45 10 3 6 23 10 45 10
24 0 40 5 44 15 3 10 19 15 46 15 22 0 40 5 40 10 0 6 13 10 29 10 17 0 33 5
36 10 3 6 19 10 36 10 16 0 29 5 29 10 0 6 9 10 20 10 11 0 20 7 20 15 0 8 -1
14 -2 14 -2 -1 -11 -3 -20 -6z"/>
<path d="M4765 340 c-3 -5 -24 -10 -45 -10 -21 0 -42 -4 -45 -10 -3 -5 -17
-10 -31 -10 -14 0 -27 -7 -30 -15 -4 -8 -15 -15 -25 -15 -10 0 -19 -4 -19 -10
0 -5 6 -10 14 -10 8 0 18 5 21 10 3 6 17 10 31 10 14 0 27 7 30 15 4 10 20 15
50 15 24 0 44 5 44 10 0 6 14 10 30 10 17 0 30 5 30 10 0 6 -11 10 -24 10 -14
0 -28 -4 -31 -10z"/>
<path d="M1925 320 c-4 -6 8 -10 30 -10 22 0 34 4 30 10 -3 6 -17 10 -30 10
-13 0 -27 -4 -30 -10z"/>
<path d="M0 302 c0 -16 7 -20 40 -20 28 -1 40 3 40 14 0 8 -10 14 -24 14 -13
0 -31 3 -40 6 -11 4 -16 0 -16 -14z"/>
<path d="M1885 301 c-7 -12 12 -24 25 -16 11 7 4 25 -10 25 -5 0 -11 -4 -15
-9z"/>
<path d="M6274 295 c-5 -11 -21 -15 -60 -15 -30 0 -54 -4 -54 -10 0 -5 -18
-10 -39 -10 -22 0 -43 -4 -46 -10 -3 -5 -28 -10 -55 -10 -27 0 -52 -5 -55 -10
-3 -5 -42 -10 -85 -10 -43 0 -82 -4 -85 -10 -3 -5 -27 -10 -53 -10 -26 0 -56
-7 -66 -15 -11 -8 -35 -15 -54 -15 -19 0 -31 -4 -27 -10 9 -14 75 -12 80 3 3
7 25 12 57 12 32 0 53 5 56 13 2 8 29 12 88 12 49 0 84 4 84 10 0 6 25 10 55
10 30 0 55 5 55 10 0 6 18 10 39 10 22 0 43 5 46 10 3 6 28 10 55 10 27 0 52
5 55 10 3 6 21 10 38 10 49 0 82 11 65 21 -23 15 -88 10 -94 -6z"/>
<path d="M4500 250 c0 -5 -9 -10 -20 -10 -11 0 -20 -4 -20 -10 0 -5 9 -10 20
-10 11 0 20 5 20 10 0 6 14 10 30 10 17 0 30 5 30 10 0 6 -13 10 -30 10 -16 0
-30 -4 -30 -10z"/>
<path d="M4395 210 c-3 -5 -19 -10 -34 -10 -16 0 -34 -7 -41 -15 -7 -8 -28
-15 -46 -15 -19 0 -34 -4 -34 -10 0 -5 -16 -10 -35 -10 -19 0 -35 -4 -35 -10
0 -5 -13 -10 -30 -10 -16 0 -30 -4 -30 -10 0 -5 -20 -10 -45 -10 -25 0 -45 -4
-45 -10 0 -5 -7 -10 -16 -10 -24 0 -114 -33 -114 -42 0 -5 -20 -8 -45 -8 -25
0 -45 -4 -45 -10 0 -5 -13 -10 -30 -10 -16 0 -30 -4 -30 -10 0 -5 14 -10 30
-10 17 0 30 5 30 10 0 6 18 10 39 10 22 0 43 4 46 10 3 5 17 10 30 10 13 0 28
7 33 16 7 12 18 15 36 12 18 -4 29 -1 33 8 3 9 20 14 43 14 22 0 42 5 45 10 3
6 19 10 36 10 16 0 29 5 29 10 0 6 13 10 29 10 17 0 33 5 36 10 3 6 23 10 45
10 23 0 40 5 43 14 3 8 14 12 25 9 10 -2 26 3 35 11 8 9 27 16 41 16 14 0 26
5 26 10 0 6 -11 10 -24 10 -14 0 -28 -4 -31 -10z"/>
<path d="M2158 193 c-10 -2 -18 -9 -18 -14 0 -5 -13 -9 -30 -9 -16 0 -30 -4
-30 -8 0 -4 -19 -9 -42 -11 -24 -1 -44 -6 -46 -12 -2 -5 -24 -9 -48 -9 -24 0
-44 -4 -44 -10 0 -5 -22 -10 -49 -10 -28 0 -53 -4 -56 -10 -3 -5 -17 -10 -30
-10 -14 0 -38 -8 -55 -19 -27 -16 -29 -19 -13 -25 11 -4 22 -1 29 8 6 9 23 16
38 16 14 0 26 5 26 10 0 6 25 10 55 10 30 0 55 5 55 10 0 6 18 10 39 10 22 0
43 5 46 10 3 6 24 10 45 10 21 0 42 5 45 10 3 6 15 10 26 10 11 0 31 7 44 16
13 9 28 13 34 10 12 -8 41 3 41 15 0 9 -31 10 -62 2z"/>
<path d="M5460 140 c0 -6 -28 -10 -65 -10 -37 0 -65 -4 -65 -10 0 -5 -18 -10
-40 -10 -23 0 -43 -5 -45 -12 -4 -9 -23 -12 -61 -10 -30 2 -69 -2 -86 -9 -16
-7 -49 -11 -71 -10 -57 2 -118 -9 -111 -20 9 -16 151 -11 168 6 10 10 36 15
85 15 38 0 73 4 76 10 3 5 24 10 46 10 21 0 39 5 39 10 0 6 28 10 65 10 37 0
65 4 65 10 0 6 28 10 65 10 37 0 65 4 65 10 0 6 -28 10 -65 10 -37 0 -65 -4
-65 -10z"/>
<path d="M6378 63 c-10 -2 -18 -9 -18 -14 0 -5 -20 -9 -45 -9 -25 0 -45 -4
-45 -10 0 -5 -25 -10 -55 -10 -30 0 -55 -4 -55 -10 0 -5 25 -10 55 -10 30 0
55 5 55 10 0 6 11 10 25 10 39 0 105 23 105 37 0 7 -1 12 -2 12 -2 -1 -11 -3
-20 -6z"/>
<path d="M4785 30 c-3 -5 -24 -10 -46 -10 -21 0 -39 -4 -39 -10 0 -5 18 -10
40 -10 22 0 40 5 40 10 0 6 26 10 59 10 33 0 63 5 66 10 4 6 -16 10 -54 10
-33 0 -63 -4 -66 -10z"/>
</g>
</svg>
